<?xml version="1.0" encoding="utf-8"?>
<!-- Generator: Adobe Illustrator 25.0.1, SVG Export Plug-In . SVG Version: 6.00 Build 0)  -->
<svg version="1.1" id="Layer_1" xmlns="http://www.w3.org/2000/svg" xmlns:xlink="http://www.w3.org/1999/xlink" x="0px" y="0px"
	 viewBox="0 0 426.42 414.56" style="enable-background:new 0 0 426.42 414.56;" xml:space="preserve">
<style type="text/css">
	.st0{fill:#FFFFFF;}
	.st1{fill:#006AEA;}
	.st2{fill:#000353;}
</style>
<g>
	<path class="st1" d="M426.34,109.83C424.1,49.24,371.76,0,309.69,0H245.4l26.03,41.9h38.43c39.89,0,72.63,30.15,74.52,68.67
		c0.92,19.95-6.14,38.86-19.88,53.31c-13.82,14.5-32.33,22.47-52.28,22.47h-78.02v-73.09l22.24,35.76l35.54-22.18L213.44,0.46
		l-78.71,126.4l35.66,22.18l21.84-35.14v219.9c0,6.13-1.15,15.07-6.72,22.76c-0.68,0.97-1.43,1.83-2.17,2.75
		c-7.28,8.42-18.63,13.3-31.19,13.3h-37.95c-5.27,0-10.55-0.58-15.7-1.73c-33.94-7.51-57.67-38.18-56.52-72.98
		c1.26-38.4,34.74-69.7,74.57-69.7h48.35v-41.96h-48.18c-62.08,0-114.36,49.25-116.66,109.83c-1.15,31.31,10.21,60.94,31.93,83.52
		c21.73,22.53,50.96,34.96,82.2,34.96h38.75c1.2,0,2.35,0,3.37-0.05c7.92-0.35,15.77-1.78,23.39-4.41
		c9.91-3.51,18.92-8.71,26.72-15.59c16.27-14.11,26.13-33.71,27.68-55.09c0.28-3.09,0.35-6.25,0.23-9.63l-0.17-101.47h78.02
		c31.24,0,60.47-12.44,82.2-35.02C416.13,170.76,427.49,141.13,426.34,109.83z"/>
</g>
</svg>
