<?xml version="1.0" encoding="utf-8"?>
<!-- Generator: Adobe Illustrator 25.2.0, SVG Export Plug-In . SVG Version: 6.00 Build 0)  -->
<svg version="1.1" id="Layer_1" xmlns:svgjs="http://svgjs.dev/svgjs"
	 xmlns="http://www.w3.org/2000/svg" xmlns:xlink="http://www.w3.org/1999/xlink" x="0px" y="0px" viewBox="0 0 1000 1000"
	 style="enable-background:new 0 0 1000 1000;" xml:space="preserve">
<style type="text/css">
	.st0{clip-path:url(#SVGID_2_);}
	.st1{fill:#FFFFFF;}
	.st2{fill:#F00605;}
</style>
<g id="dark-icon">
	<g>
		<defs>
			<path id="SVGID_1_" d="M-1057-128.4h300c193.3,0,350,156.7,350,350v300c0,193.3-156.7,350-350,350h-300
				c-193.3,0-350-156.7-350-350v-300C-1407,28.3-1250.3-128.4-1057-128.4z"/>
		</defs>
		<clipPath id="SVGID_2_">
			<use xlink:href="#SVGID_1_"  style="overflow:visible;"/>
		</clipPath>
		<g class="st0">
			<rect x="-1407" y="-128.4" width="1000" height="1000"/>
			<g transform="matrix(5,0,0,5,192.5,150)">
				<path class="st1" d="M-221.1,93.1l-41.4-23.8c-0.5-0.3-0.8-0.8-0.8-1.4V31.1c0-0.6,0.7-1,1.2-0.7l48,27.6
					c0.7,0.4,1.5-0.1,1.5-0.9V39.2c0-0.7-0.4-1.4-1-1.7l-57.7-33.2c-0.5-0.3-1.2-0.3-1.7,0l-7.6,4.4c-0.5,0.3-0.8,0.8-0.8,1.4v68.2
					c0,0.6,0.3,1.1,0.8,1.4l59.3,34.1c0.5,0.3,1.2,0.3,1.7,0l49.8-28.7c0.7-0.4,0.7-1.3,0-1.7l-15.5-8.9c-0.6-0.4-1.4-0.4-2,0
					l-32.2,18.5C-219.9,93.4-220.6,93.4-221.1,93.1L-221.1,93.1z"/>
				<path class="st1" d="M-160.2,8.6l-59.3-34.1c-0.5-0.3-1.2-0.3-1.7,0l-31.3,18c-0.7,0.4-0.7,1.3,0,1.7l15.4,8.9
					c0.6,0.4,1.4,0.4,2,0l14.1-8.1c0.5-0.3,1.2-0.3,1.7,0l41.4,23.8c0.5,0.3,0.8,0.8,0.8,1.4v36.9c0,0.7,0.4,1.4,1,1.7l15.4,8.8
					c0.7,0.4,1.5-0.1,1.5-0.9V10.1C-159.4,9.5-159.7,9-160.2,8.6L-160.2,8.6z"/>
			</g>
		</g>
	</g>
</g>
<path class="st2" d="M500,1000L500,1000C223.9,1000,0,776.1,0,500v0C0,223.9,223.9,0,500,0h0c276.1,0,500,223.9,500,500v0
	C1000,776.1,776.1,1000,500,1000z"/>
<g>
	<g>
		<line class="st1" x1="168.1" y1="345.9" x2="806.1" y2="345.9"/>
		<rect x="168.1" y="332.4" class="st1" width="638" height="27.1"/>
	</g>
	<g>
		<line class="st1" x1="612.8" y1="345.3" x2="344.7" y2="720.3"/>
		<polygon class="st1" points="354.6,727.6 334.8,713 602.9,338 622.7,352.5 		"/>
	</g>
	<g>
		<line class="st1" x1="275.9" y1="345.9" x2="275.9" y2="572.2"/>
		<rect x="262.4" y="345.9" class="st1" width="27.1" height="226.3"/>
	</g>
	<g>
		<line class="st1" x1="168.1" y1="574.7" x2="383.2" y2="574.7"/>
		<rect x="168.1" y="561.2" class="st1" width="215" height="27.1"/>
	</g>
	<g>
		<path class="st1" d="M749.8,588.3H636.7V564h113.1c19.3,0,35-15.7,35-35c0-19.3-15.7-35-35-35h-62.3c-32.6,0-59.2-26.6-59.2-59.2
			v-0.8c0-32.6,26.6-59.2,59.2-59.2h109.3v24.2H687.5c-19.3,0-35,15.7-35,35v0.8c0,19.3,15.7,35,35,35h62.3
			c32.6,0,59.2,26.6,59.2,59.2S782.4,588.3,749.8,588.3z"/>
	</g>
</g>
</svg>
