<?xml version="1.0" encoding="utf-8"?>
<!-- Generator: Adobe Illustrator 25.0.1, SVG Export Plug-In . SVG Version: 6.00 Build 0)  -->
<svg version="1.1" id="Layer_1" xmlns="http://www.w3.org/2000/svg" xmlns:xlink="http://www.w3.org/1999/xlink" x="0px" y="0px"
	 viewBox="0 0 591.48 171.43" style="enable-background:new 0 0 591.48 171.43;" xml:space="preserve">
<style type="text/css">
	.st0{fill:#FFFFFF;}
	.st1{fill:#006AEA;}
	.st2{fill:#000353;}
</style>
<g>
	<g>
		<path class="st1" d="M175.85,45.74c-0.92-24.99-22.51-45.3-48.12-45.3h-26.52l10.74,17.28h15.85c16.45,0,29.96,12.44,30.74,28.33
			c0.38,8.23-2.53,16.03-8.2,21.99c-5.7,5.98-13.34,9.27-21.57,9.27H96.59V47.16l9.17,14.75l14.66-9.15L88.04,0.63L55.57,52.76
			l14.71,9.15l9.01-14.49v90.7c0,2.53-0.47,6.22-2.77,9.39c-0.28,0.4-0.59,0.76-0.9,1.14c-3,3.47-7.68,5.49-12.86,5.49H47.11
			c-2.18,0-4.35-0.24-6.48-0.71c-14-3.1-23.79-15.75-23.31-30.1c0.52-15.84,14.33-28.75,30.76-28.75h19.94V77.25H48.15
			c-25.61,0-47.17,20.31-48.12,45.3c-0.47,12.91,4.21,25.14,13.17,34.45c8.96,9.29,21.02,14.42,33.91,14.42h15.98
			c0.5,0,0.97,0,1.39-0.02c3.27-0.14,6.5-0.73,9.65-1.82c4.09-1.45,7.81-3.59,11.02-6.43c6.71-5.82,10.78-13.9,11.42-22.72
			c0.12-1.27,0.14-2.58,0.09-3.97l-0.07-41.85h32.18c12.89,0,24.94-5.13,33.91-14.44C171.64,70.87,176.32,58.65,175.85,45.74z"/>
	</g>
	<g>
		<path class="st2" d="M192.08,11.12h27.1c13.83,0,21.36,6.61,21.36,19.02c0,12.35-7.53,18.95-21.36,18.95h-14.82v13.89h-12.29
			V11.12z M218.38,38.77c6.05,0,9.82-2.9,9.82-8.64c0-5.8-3.77-8.71-9.82-8.71h-14.01v17.35H218.38z"/>
		<path class="st2" d="M286.42,62.98l-8.52-15.43h-16.73v15.43h-12.29V11.12h27.23c13.89,0,21.24,6.48,21.24,18.58
			c0,7.22-3.52,12.47-8.83,15.37l10.12,17.9H286.42z M261.17,38.1h14.26c6.24,0,9.69-2.84,9.69-8.33c0-5.49-3.46-8.33-9.69-8.33
			h-14.26V38.1z"/>
		<path class="st2" d="M306.49,11.12h12.29v51.86h-12.29V11.12z"/>
		<path class="st2" d="M327.79,11.12h15.74l12.84,36.36h0.93l12.84-36.36h15.74v51.86h-11.79V31.74h-1.05l-11.42,31.24h-9.57
			l-11.42-31.24h-1.05v31.24h-11.79V11.12z"/>
		<path class="st2" d="M394.9,11.12h43.65v10.06h-31.36v11.36h30.25v8.89h-30.25v11.42h31.36v10.12H394.9V11.12z"/>
		<path class="st2" d="M191.15,103.14c0-16.3,11.61-27.66,28.4-27.66c11.36,0,23.03,5.06,25.56,20.31h-11.79
			c-2.22-6.67-7.35-9.63-13.77-9.63c-9.2,0-16.24,6.98-16.24,16.98c0,9.94,7.04,16.98,16.24,16.98c6.42,0,11.54-2.96,13.77-9.69
			h11.79c-2.53,15.31-14.08,20.37-25.56,20.37C202.76,130.8,191.15,119.44,191.15,103.14z"/>
		<path class="st2" d="M252.46,103.14c0-16.3,11.54-27.66,28.46-27.66c16.98,0,28.52,11.36,28.52,27.66s-11.54,27.66-28.52,27.66
			C264.01,130.8,252.46,119.44,252.46,103.14z M297.22,103.14c0-10.19-7.04-16.98-16.3-16.98c-9.2,0-16.3,6.79-16.3,16.98
			s7.1,16.98,16.3,16.98C290.18,120.12,297.22,113.33,297.22,103.14z"/>
		<path class="st2" d="M317.54,107.46V77.21h12.41v29.94c0,8.27,4.14,13.27,12.59,13.27s12.66-5,12.66-13.27V77.21h12.35v30.25
			c0,15.8-9.01,23.34-25,23.34S317.54,123.27,317.54,107.46z"/>
		<path class="st2" d="M376.5,77.21h14.26l24.08,34.88h1.17V77.21h12.04v51.86h-14.01l-24.39-34.88h-1.11v34.88H376.5V77.21z"/>
		<path class="st2" d="M435.77,113.02h11.11c0.43,4.88,4.45,7.96,12.96,8.03c8.03,0,12.41-2.72,12.41-6.79
			c0-3.58-2.9-5.37-9.08-6.42l-6.42-1.11c-9.82-1.73-19.57-4.32-19.57-15.62c0-9.82,8.27-15.62,22.78-15.62
			c13.52,0,22.9,4.75,23.03,17.59h-11.05c-0.8-4.69-4.45-7.84-12.22-7.84c-7.04,0-10.74,2.41-10.74,6.42c0,3.15,2.53,5.12,7.84,6.11
			l5.62,0.99c9.88,1.79,22.04,3.46,22.04,15.87c0,10.31-8.46,16.17-24.63,16.17C444.04,130.8,435.71,125.18,435.77,113.02z"/>
		<path class="st2" d="M492.39,77.21h43.65v10.06h-31.36v11.36h30.25v8.89h-30.25v11.42h31.36v10.12h-43.65V77.21z"/>
		<path class="st2" d="M545.05,77.21h12.29v41.55h29.88v10.31h-42.17V77.21z"/>
	</g>
	<g>
		<path class="st2" d="M207.63,146.61c-0.05-3.2-1.28-4.24-4.15-4.24c-4.56,0-7.61,5.07-7.61,10.12c0,4.19,1.7,7.11,4.94,7.11
			c1.46,0,2.33-0.39,2.67-2.06l0.54-2.75c0.42-2.11,0.25-2.24-2.22-2.56l0.1-0.38h7.06l-0.07,0.38c-1.52,0.25-1.68,0.43-2.1,2.56
			l-0.48,2.41c-0.14,0.68-0.18,1.46-0.12,1.99c-1.58,0.43-3.66,1-5.63,1c-4.75,0-7.87-2.8-7.87-7.64c0-6.46,4.76-10.77,11.14-10.77
			c2.19,0,4.12,0.47,4.89,0.69c-0.19,0.88-0.46,2.37-0.68,4.12L207.63,146.61z"/>
		<path class="st2" d="M224.45,157.36c-1.39,1.88-2.96,2.75-3.79,2.75c-0.74,0-1.09-0.64-0.63-2.64c0.17-0.83,0.32-1.5,0.51-2.36
			c-1.29,1.91-2.73,3.38-3.81,4.16c-0.66,0.49-1.37,0.84-2.02,0.84c-0.92,0-1.77-0.56-1.04-3.75c0.37-1.69,0.88-3.62,1.26-5.26
			c0.2-0.91,0.2-1.25-0.09-1.25c-0.29,0-0.97,0.46-1.62,1.14l-0.22-0.33c1.2-1.46,2.83-2.62,3.83-2.62c0.84,0,0.95,0.91,0.45,3.15
			c-0.43,1.88-0.91,3.68-1.27,5.38c-0.3,1.37,0.09,1.77,0.43,1.77c0.9,0,2.06-1.28,3.14-2.8c0.61-0.84,1.24-1.94,1.56-3.26
			c0.26-1.1,0.51-2.23,0.79-3.53c0.78-0.23,1.58-0.47,2.35-0.71h0.2c-0.63,2.72-1.52,6.48-2.03,9.25c-0.14,0.7-0.09,1.04,0.14,1.04
			c0.26,0,0.89-0.4,1.67-1.29L224.45,157.36z"/>
		<path class="st2" d="M233.95,157.4c-1.45,1.91-3.01,2.72-3.84,2.72c-0.8,0-1.03-0.81-0.54-2.83c0.62-2.54,1.02-4.16,1.48-6.18
			c0.2-0.91,0.2-1.24-0.09-1.24c-0.32,0-0.95,0.48-1.59,1.13l-0.23-0.36c1.21-1.39,2.98-2.6,3.93-2.6c0.86,0,0.84,0.91,0.33,3.17
			c-0.48,2.04-0.96,4.06-1.43,6.08c-0.17,0.7-0.05,0.95,0.16,0.95c0.26,0,0.84-0.32,1.61-1.17L233.95,157.4z M234.65,143.67
			c0,0.87-0.59,1.64-1.39,1.64c-0.7,0-1.14-0.5-1.14-1.24c0-0.76,0.51-1.63,1.48-1.63C234.32,142.43,234.65,143.02,234.65,143.67z"
			/>
		<path class="st2" d="M249.84,157.36c-1.42,1.91-3.05,2.75-3.83,2.75c-0.85,0-1.11-0.68-0.64-2.96l0.33-1.49
			c-1.79,2.64-3.98,4.45-5.44,4.45c-1,0-1.84-0.99-1.84-3.19c0-2.55,1.06-5.42,2.88-7.01c1.37-1.23,3.48-1.88,4.44-1.88
			c0.5,0,1,0.06,1.5,0.19l0.96-4.97c0.23-1.18,0.08-1.24-1.04-1.42c-0.22-0.02-0.45-0.04-0.64-0.06l0.07-0.34
			c1.21-0.14,2.74-0.44,3.58-0.74c0.45-0.15,0.71-0.22,0.85-0.22c0.19,0,0.24,0.16,0.11,0.74c-1.17,5.11-2.75,12.7-3.36,16
			c-0.13,0.73-0.05,1,0.19,1c0.26,0,0.86-0.33,1.66-1.2L249.84,157.36z M245.35,155.27c0.52-0.79,0.7-1.5,0.9-2.43l0.7-3.26
			c-0.45-0.5-1.42-0.76-2.21-0.76c-2.49,0-3.69,4.99-3.69,7.66c0,1.27,0.32,1.92,0.88,1.92
			C242.78,158.4,244.02,157.32,245.35,155.27z"/>
		<path class="st2" d="M259.08,157.4c-1.45,1.91-3.01,2.72-3.84,2.72c-0.8,0-1.03-0.81-0.54-2.83c0.62-2.54,1.02-4.16,1.48-6.18
			c0.2-0.91,0.2-1.24-0.09-1.24c-0.32,0-0.95,0.48-1.59,1.13l-0.23-0.36c1.21-1.39,2.98-2.6,3.93-2.6c0.86,0,0.84,0.91,0.33,3.17
			c-0.48,2.04-0.96,4.06-1.43,6.08c-0.17,0.7-0.05,0.95,0.16,0.95c0.26,0,0.84-0.32,1.61-1.17L259.08,157.4z M259.79,143.67
			c0,0.87-0.59,1.64-1.39,1.64c-0.7,0-1.14-0.5-1.14-1.24c0-0.76,0.51-1.63,1.48-1.63C259.46,142.43,259.79,143.02,259.79,143.67z"
			/>
		<path class="st2" d="M275.13,157.48c-1.43,1.82-2.86,2.64-3.78,2.64c-0.82,0-1.1-0.65-0.62-2.67c0.46-2.04,0.88-3.79,1.34-5.75
			c0.32-1.48,0.25-2.01-0.34-2.01c-1.04,0-2.85,1.96-3.88,3.77c-0.59,1.03-0.72,1.68-0.94,2.49c-0.27,1.13-0.58,2.58-0.79,3.64
			c-0.77,0.09-1.7,0.31-2.36,0.5l-0.14-0.15c0.57-2.54,1.37-5.79,2.04-8.83c0.2-0.91,0.18-1.19-0.11-1.19
			c-0.33,0-0.95,0.46-1.57,1.1l-0.23-0.35c1.26-1.64,2.81-2.62,3.68-2.62c0.92,0,1,0.91,0.47,3.33l-0.37,1.59
			c1.69-2.69,4.25-4.92,5.98-4.92c0.97,0,1.62,0.47,0.84,3.94c-0.43,1.79-0.79,3.45-1.18,5.2c-0.18,0.81-0.11,1.09,0.14,1.09
			c0.26,0,0.83-0.3,1.63-1.17L275.13,157.48z"/>
		<path class="st2" d="M282.75,156.99c-0.15,0.16-0.47,0.5-0.47,0.85c0,0.49,0.76,0.92,2.27,1.7c2.68,1.41,3.58,2.41,3.58,3.53
			c0,2.43-3.98,4.26-6.72,4.26c-2.56,0-4.8-1.31-4.8-2.98c0-1.34,2.06-2.55,4.65-3.88c-0.7-0.45-1.07-0.95-1.05-1.38
			c0.02-0.5,0.82-1.28,2.04-2.09H282.75z M285.98,164.32c0-0.7-0.46-1.25-1.23-1.82c-0.93-0.65-2.2-1.27-3.11-1.75
			c-1.6,0.92-2.68,1.96-2.68,3.11c0,1.61,2,2.55,3.73,2.55C284.93,166.42,285.98,165.45,285.98,164.32z M279.81,154.06
			c0-2.16,1.22-4.13,2.95-5.18c0.87-0.51,1.92-0.84,2.84-0.84c0.87,0,1.56,0.23,2.21,0.71c1.42,0.06,2.33-0.26,2.82-0.62l0.18,0.27
			c-0.87,1.22-1.95,1.45-2.5,1.48c0.1,0.34,0.15,0.71,0.15,1.22c0,2.25-1.19,3.73-2.14,4.52c-1.11,0.9-2.77,1.52-3.77,1.51
			C280.78,157.11,279.81,155.8,279.81,154.06z M286.16,150.86c0-1.4-0.43-2.14-1.37-2.14c-1.51,0-2.6,2.82-2.6,5.58
			c0,1.33,0.46,2.11,1.38,2.11C284.91,156.4,286.16,154,286.16,150.86z"/>
		<path class="st2" d="M311.95,157.48c-1.43,1.82-2.86,2.64-3.78,2.64c-0.82,0-1.1-0.65-0.62-2.67c0.46-2.04,0.88-3.79,1.34-5.75
			c0.32-1.48,0.25-2.01-0.34-2.01c-1.04,0-2.85,1.96-3.88,3.77c-0.59,1.03-0.72,1.68-0.94,2.49c-0.27,1.13-0.58,2.58-0.79,3.64
			c-0.77,0.09-1.7,0.31-2.36,0.5l-0.14-0.15c0.57-2.54,1.37-5.79,2.04-8.83c0.2-0.91,0.18-1.19-0.11-1.19
			c-0.33,0-0.95,0.46-1.57,1.1l-0.23-0.35c1.26-1.64,2.81-2.62,3.68-2.62c0.92,0,1,0.91,0.47,3.33l-0.37,1.59
			c1.69-2.69,4.25-4.92,5.98-4.92c0.97,0,1.62,0.47,0.84,3.94c-0.43,1.79-0.79,3.45-1.18,5.2c-0.18,0.81-0.11,1.09,0.14,1.09
			c0.26,0,0.83-0.3,1.63-1.17L311.95,157.48z"/>
		<path class="st2" d="M319.39,160.11c-1.3,0-2.9-0.75-2.9-3.82c0-2.45,1.01-5.14,2.94-6.73c1.04-0.87,2.6-1.52,3.74-1.52
			c1.4,0,2.02,0.95,2.02,1.96c0,2.37-3.6,3.58-6.13,4.18c-0.05,0.49-0.06,0.91-0.06,1.08c0,1.69,0.5,3.27,2.06,3.27
			c1.01,0,2.16-0.54,3.39-1.86l0.22,0.35C322.77,159.36,320.8,160.11,319.39,160.11z M319.15,153.55c3.05-0.53,3.86-2,3.86-3.33
			c0-0.76-0.41-1.31-1.14-1.31C320.87,148.92,319.64,149.93,319.15,153.55z"/>
		<path class="st2" d="M329.82,150.87c1.23-1.76,2.49-2.83,3.32-2.83c0.71,0,1.08,0.87,1.56,2.55l0.5,1.73
			c2.13-3.01,3.22-4.28,4.2-4.28c0.76,0,1.06,0.55,1.06,1.13c0,0.62-0.59,1.36-1.04,1.47c-0.21,0.05-0.34-0.05-0.44-0.15
			c-0.29-0.25-0.45-0.62-0.83-0.62c-0.38,0-1.35,1.06-2.79,3.08l0.94,3.14c0.44,1.53,0.77,2.22,1.2,2.22c0.37,0,0.91-0.39,1.88-1.5
			l0.22,0.32c-1.39,2.08-2.75,2.97-3.63,2.97c-0.8,0-1.2-0.88-1.66-2.45l-0.73-2.51c-2.42,3.42-3.38,4.96-4.59,4.96
			c-0.65,0-1.07-0.55-1.07-1.26c0-0.79,0.78-1.61,1.25-1.61c0.41,0,0.58,0.84,1.06,0.84c0.45,0,1.67-1.35,3.19-3.6l-0.74-2.56
			c-0.45-1.57-0.71-2-1.03-2c-0.26,0-0.72,0.18-1.58,1.26L329.82,150.87z"/>
		<path class="st2" d="M351.17,149.09c-0.82,0.03-1.58,0.05-2.42,0.06c-0.9,4.35-1.45,6.99-1.56,7.55c-0.2,1.2-0.13,1.65,0.26,1.65
			c0.52,0,1.18-0.49,2.1-1.43l0.21,0.27c-0.91,1.27-2.63,2.92-4.04,2.92c-1.05,0-1.49-0.84-0.81-4.02l1.46-6.94h-1.92l-0.05-0.15
			l0.61-0.64h1.54l0.6-2.75c0.72-0.32,1.81-0.95,2.58-1.54l0.22,0.1c-0.32,1.09-0.69,2.76-1.02,4.2h2.68L351.17,149.09z"/>
		<path class="st2" d="M364.96,156.99c-0.15,0.16-0.47,0.5-0.47,0.85c0,0.49,0.76,0.92,2.27,1.7c2.68,1.41,3.58,2.41,3.58,3.53
			c0,2.43-3.98,4.26-6.72,4.26c-2.56,0-4.8-1.31-4.8-2.98c0-1.34,2.06-2.55,4.65-3.88c-0.7-0.45-1.07-0.95-1.05-1.38
			c0.02-0.5,0.82-1.28,2.04-2.09H364.96z M368.19,164.32c0-0.7-0.46-1.25-1.23-1.82c-0.93-0.65-2.2-1.27-3.11-1.75
			c-1.6,0.92-2.68,1.96-2.68,3.11c0,1.61,2,2.55,3.73,2.55C367.14,166.42,368.19,165.45,368.19,164.32z M362.02,154.06
			c0-2.16,1.22-4.13,2.95-5.18c0.87-0.51,1.92-0.84,2.84-0.84c0.87,0,1.56,0.23,2.21,0.71c1.42,0.06,2.33-0.26,2.82-0.62l0.18,0.27
			c-0.87,1.22-1.95,1.45-2.5,1.48c0.1,0.34,0.15,0.71,0.15,1.22c0,2.25-1.19,3.73-2.14,4.52c-1.11,0.9-2.77,1.52-3.77,1.51
			C362.99,157.11,362.02,155.8,362.02,154.06z M368.36,150.86c0-1.4-0.43-2.14-1.37-2.14c-1.51,0-2.6,2.82-2.6,5.58
			c0,1.33,0.46,2.11,1.38,2.11C367.12,156.4,368.36,154,368.36,150.86z"/>
		<path class="st2" d="M378.15,160.11c-1.3,0-2.9-0.75-2.9-3.82c0-2.45,1.01-5.14,2.94-6.73c1.04-0.87,2.6-1.52,3.74-1.52
			c1.4,0,2.02,0.95,2.02,1.96c0,2.37-3.6,3.58-6.13,4.18c-0.05,0.49-0.06,0.91-0.06,1.08c0,1.69,0.5,3.27,2.06,3.27
			c1.01,0,2.16-0.54,3.39-1.86l0.22,0.35C381.52,159.36,379.55,160.11,378.15,160.11z M377.91,153.55c3.05-0.53,3.86-2,3.86-3.33
			c0-0.76-0.41-1.31-1.14-1.31C379.62,148.92,378.4,149.93,377.91,153.55z"/>
		<path class="st2" d="M399.5,157.48c-1.43,1.82-2.86,2.64-3.78,2.64c-0.82,0-1.1-0.65-0.62-2.67c0.46-2.04,0.88-3.79,1.34-5.75
			c0.32-1.48,0.25-2.01-0.34-2.01c-1.04,0-2.85,1.96-3.88,3.77c-0.59,1.03-0.72,1.68-0.94,2.49c-0.27,1.13-0.58,2.58-0.79,3.64
			c-0.77,0.09-1.7,0.31-2.36,0.5l-0.14-0.15c0.57-2.54,1.37-5.79,2.04-8.83c0.2-0.91,0.18-1.19-0.11-1.19
			c-0.33,0-0.95,0.46-1.57,1.1l-0.23-0.35c1.26-1.64,2.81-2.62,3.68-2.62c0.92,0,1,0.91,0.47,3.33l-0.37,1.59
			c1.69-2.69,4.25-4.92,5.98-4.92c0.97,0,1.62,0.47,0.84,3.94c-0.43,1.79-0.79,3.45-1.18,5.2c-0.18,0.81-0.11,1.09,0.14,1.09
			c0.26,0,0.83-0.3,1.63-1.17L399.5,157.48z"/>
		<path class="st2" d="M406.94,160.11c-1.3,0-2.9-0.75-2.9-3.82c0-2.45,1.01-5.14,2.94-6.73c1.04-0.87,2.6-1.52,3.74-1.52
			c1.4,0,2.02,0.95,2.02,1.96c0,2.37-3.6,3.58-6.13,4.18c-0.05,0.49-0.06,0.91-0.06,1.08c0,1.69,0.5,3.27,2.06,3.27
			c1.01,0,2.16-0.54,3.39-1.86l0.22,0.35C410.32,159.36,408.34,160.11,406.94,160.11z M406.7,153.55c3.05-0.53,3.86-2,3.86-3.33
			c0-0.76-0.41-1.31-1.14-1.31C408.42,148.92,407.19,149.93,406.7,153.55z"/>
		<path class="st2" d="M416.87,150.67c1.45-1.77,2.83-2.63,3.69-2.63c0.9,0,0.91,1.14,0.35,3.75l-0.21,0.88
			c1.2-2.34,2.92-4.63,4.11-4.63c0.66,0,1.16,0.54,1.16,1.22c0,0.66-0.68,1.58-1.09,1.83c-0.21,0.13-0.33,0.19-0.47,0.02
			c-0.35-0.37-0.94-0.83-1.26-0.83c-0.65,0-1.62,1.84-2.03,2.68c-0.81,1.68-1.28,4.17-1.79,6.6c-0.79,0.1-1.74,0.31-2.36,0.51
			l-0.14-0.16c0.67-2.77,1.47-6.4,1.82-8.2c0.29-1.46,0.27-1.81,0.04-1.81c-0.38,0-1.06,0.59-1.59,1.09L416.87,150.67z"/>
		<path class="st2" d="M439.54,157.43c-1.43,1.89-2.84,2.69-3.7,2.69c-0.82,0-1-0.86-0.56-3.16l0.26-1.41
			c-1.08,1.71-2.09,2.63-2.85,3.32c-1.01,0.88-1.73,1.25-2.51,1.25c-1.04,0-1.7-1.21-1.7-3.02c0-2.56,1.21-5.3,2.97-6.9
			c1.22-1.09,3.16-2.14,5.07-2.14c1.07,0,2.41,0.35,2.91,0.45c-0.53,1.91-1.25,5.33-1.87,8.73c-0.14,0.73-0.05,1,0.21,1
			c0.27,0,0.77-0.29,1.58-1.14L439.54,157.43z M434.62,156c0.71-0.97,1.1-1.86,1.38-2.92c0.29-1.12,0.67-3,0.8-3.75
			c-0.4-0.21-1.04-0.38-1.92-0.38c-2.49,0-3.77,4.52-3.77,7.55c0,1.34,0.39,1.78,0.81,1.78C432.59,158.29,433.43,157.66,434.62,156z
			"/>
		<path class="st2" d="M451.03,149.09c-0.82,0.03-1.58,0.05-2.42,0.06c-0.9,4.35-1.45,6.99-1.56,7.55c-0.2,1.2-0.13,1.65,0.26,1.65
			c0.52,0,1.18-0.49,2.1-1.43l0.21,0.27c-0.91,1.27-2.63,2.92-4.04,2.92c-1.05,0-1.49-0.84-0.81-4.02l1.46-6.94h-1.92l-0.05-0.15
			l0.61-0.64h1.54l0.6-2.75c0.72-0.32,1.81-0.95,2.58-1.54l0.22,0.1c-0.32,1.09-0.69,2.76-1.02,4.2h2.68L451.03,149.09z"/>
		<path class="st2" d="M459.23,157.4c-1.45,1.91-3.01,2.72-3.84,2.72c-0.8,0-1.03-0.81-0.54-2.83c0.62-2.54,1.02-4.16,1.48-6.18
			c0.2-0.91,0.2-1.24-0.09-1.24c-0.32,0-0.95,0.48-1.59,1.13l-0.23-0.36c1.21-1.39,2.98-2.6,3.93-2.6c0.86,0,0.84,0.91,0.33,3.17
			c-0.48,2.04-0.96,4.06-1.43,6.08c-0.17,0.7-0.05,0.95,0.16,0.95c0.26,0,0.84-0.32,1.61-1.17L459.23,157.4z M459.94,143.67
			c0,0.87-0.59,1.64-1.39,1.64c-0.7,0-1.14-0.5-1.14-1.24c0-0.76,0.51-1.63,1.48-1.63C459.61,142.43,459.94,143.02,459.94,143.67z"
			/>
		<path class="st2" d="M474.12,151.96c0,2.93-1.46,5.81-3.87,7.26c-0.91,0.55-1.88,0.89-3,0.89c-2.6,0-3.52-1.89-3.52-3.96
			c0-3.45,1.92-6.25,4.27-7.44c0.85-0.41,1.77-0.68,2.66-0.68C472.92,148.04,474.12,149.64,474.12,151.96z M466.36,156.08
			c0,2.26,0.83,3.28,1.9,3.28c2.55,0,3.26-5.3,3.26-7.35c-0.01-2.25-0.75-3.23-1.78-3.23C467.18,148.78,466.36,153.85,466.36,156.08
			z"/>
		<path class="st2" d="M490.25,157.48c-1.43,1.82-2.86,2.64-3.78,2.64c-0.82,0-1.1-0.65-0.62-2.67c0.46-2.04,0.88-3.79,1.34-5.75
			c0.32-1.48,0.25-2.01-0.34-2.01c-1.04,0-2.85,1.96-3.88,3.77c-0.59,1.03-0.72,1.68-0.94,2.49c-0.27,1.13-0.58,2.58-0.79,3.64
			c-0.77,0.09-1.7,0.31-2.36,0.5l-0.14-0.15c0.57-2.54,1.37-5.79,2.04-8.83c0.2-0.91,0.18-1.19-0.11-1.19
			c-0.33,0-0.95,0.46-1.57,1.1l-0.23-0.35c1.26-1.64,2.81-2.62,3.68-2.62c0.92,0,1,0.91,0.47,3.33l-0.37,1.59
			c1.69-2.69,4.25-4.92,5.98-4.92c0.97,0,1.62,0.47,0.84,3.94c-0.43,1.79-0.79,3.45-1.18,5.2c-0.18,0.81-0.11,1.09,0.14,1.09
			c0.26,0,0.83-0.3,1.63-1.17L490.25,157.48z"/>
		<path class="st2" d="M507.08,157.36c-1.44,1.91-2.96,2.75-3.79,2.75c-0.79,0-1.06-0.76-0.65-2.72c0.9-4.54,2.01-9.87,2.82-14.05
			c0.25-1.24,0.11-1.31-0.99-1.53c-0.23-0.04-0.36-0.04-0.53-0.07l0.08-0.34c1.38-0.15,2.65-0.42,3.46-0.74
			c0.4-0.14,0.64-0.22,0.78-0.22c0.2,0,0.19,0.28,0.05,0.9c-1.08,5.17-2.43,11.63-3.27,15.95c-0.15,0.7-0.04,0.96,0.18,0.96
			c0.26,0,0.87-0.33,1.65-1.2L507.08,157.36z"/>
		<path class="st2" d="M514.28,160.11c-1.3,0-2.9-0.75-2.9-3.82c0-2.45,1.01-5.14,2.94-6.73c1.04-0.87,2.6-1.52,3.74-1.52
			c1.4,0,2.02,0.95,2.02,1.96c0,2.37-3.6,3.58-6.13,4.18c-0.05,0.49-0.06,0.91-0.06,1.08c0,1.69,0.5,3.27,2.06,3.27
			c1.01,0,2.16-0.54,3.39-1.86l0.22,0.35C517.66,159.36,515.69,160.11,514.28,160.11z M514.04,153.55c3.05-0.53,3.86-2,3.86-3.33
			c0-0.76-0.41-1.31-1.14-1.31C515.76,148.92,514.53,149.93,514.04,153.55z"/>
		<path class="st2" d="M534.82,157.43c-1.43,1.89-2.84,2.69-3.7,2.69c-0.82,0-1-0.86-0.56-3.16l0.26-1.41
			c-1.08,1.71-2.09,2.63-2.85,3.32c-1.01,0.88-1.73,1.25-2.51,1.25c-1.04,0-1.7-1.21-1.7-3.02c0-2.56,1.21-5.3,2.97-6.9
			c1.22-1.09,3.16-2.14,5.07-2.14c1.07,0,2.41,0.35,2.91,0.45c-0.53,1.91-1.25,5.33-1.87,8.73c-0.14,0.73-0.05,1,0.21,1
			c0.27,0,0.77-0.29,1.58-1.14L534.82,157.43z M529.9,156c0.71-0.97,1.1-1.86,1.38-2.92c0.29-1.12,0.67-3,0.8-3.75
			c-0.4-0.21-1.04-0.38-1.92-0.38c-2.49,0-3.77,4.52-3.77,7.55c0,1.34,0.39,1.78,0.81,1.78C527.86,158.29,528.71,157.66,529.9,156z"
			/>
		<path class="st2" d="M550.58,157.36c-1.42,1.91-3.05,2.75-3.83,2.75c-0.85,0-1.11-0.68-0.64-2.96l0.33-1.49
			c-1.79,2.64-3.98,4.45-5.44,4.45c-1,0-1.84-0.99-1.84-3.19c0-2.55,1.06-5.42,2.88-7.01c1.37-1.23,3.48-1.88,4.44-1.88
			c0.5,0,1,0.06,1.5,0.19l0.96-4.97c0.23-1.18,0.08-1.24-1.04-1.42c-0.22-0.02-0.45-0.04-0.64-0.06l0.07-0.34
			c1.21-0.14,2.74-0.44,3.58-0.74c0.45-0.15,0.71-0.22,0.85-0.22c0.19,0,0.24,0.16,0.11,0.74c-1.17,5.11-2.75,12.7-3.36,16
			c-0.13,0.73-0.05,1,0.19,1c0.26,0,0.86-0.33,1.66-1.2L550.58,157.36z M546.09,155.27c0.52-0.79,0.7-1.5,0.9-2.43l0.7-3.26
			c-0.45-0.5-1.42-0.76-2.21-0.76c-2.49,0-3.69,4.99-3.69,7.66c0,1.27,0.32,1.92,0.88,1.92
			C543.53,158.4,544.76,157.32,546.09,155.27z"/>
		<path class="st2" d="M557.8,160.11c-1.3,0-2.9-0.75-2.9-3.82c0-2.45,1.01-5.14,2.94-6.73c1.05-0.87,2.6-1.52,3.74-1.52
			c1.4,0,2.02,0.95,2.02,1.96c0,2.37-3.6,3.58-6.13,4.18c-0.05,0.49-0.06,0.91-0.06,1.08c0,1.69,0.5,3.27,2.06,3.27
			c1.01,0,2.16-0.54,3.39-1.86l0.22,0.35C561.18,159.36,559.2,160.11,557.8,160.11z M557.56,153.55c3.05-0.53,3.86-2,3.86-3.33
			c0-0.76-0.41-1.31-1.14-1.31C559.28,148.92,558.05,149.93,557.56,153.55z"/>
		<path class="st2" d="M567.73,150.67c1.45-1.77,2.83-2.63,3.69-2.63c0.9,0,0.91,1.14,0.35,3.75l-0.21,0.88
			c1.2-2.34,2.92-4.63,4.11-4.63c0.66,0,1.16,0.54,1.16,1.22c0,0.66-0.68,1.58-1.09,1.83c-0.21,0.13-0.33,0.19-0.47,0.02
			c-0.35-0.37-0.94-0.83-1.26-0.83c-0.65,0-1.62,1.84-2.03,2.68c-0.81,1.68-1.28,4.17-1.79,6.6c-0.79,0.1-1.74,0.31-2.36,0.51
			l-0.14-0.16c0.67-2.77,1.47-6.4,1.82-8.2c0.29-1.46,0.27-1.81,0.04-1.81c-0.38,0-1.06,0.59-1.59,1.09L567.73,150.67z"/>
		<path class="st2" d="M587.22,149.43c0,0.44-0.54,1.17-0.93,1.29c-0.17,0.05-0.28-0.01-0.54-0.27c-0.52-0.59-1.19-1.29-2-1.29
			c-0.75,0-1.32,0.64-1.32,1.37c0,0.84,0.68,1.37,1.85,2.3c1.88,1.5,2.21,2.15,2.21,3.15c0,2.11-3.29,4.13-4.9,4.13
			c-1.21,0-2.5-0.82-2.5-1.87c0-0.42,0.59-1.29,1.06-1.29c0.13-0.02,0.23,0.04,0.34,0.17c0.96,1.25,1.8,1.79,2.67,1.79
			c0.85,0,1.52-0.64,1.52-1.39c0-0.65-0.36-1.2-1.56-2.22c-1.01-0.86-2.33-1.74-2.33-3.18c0-0.8,0.32-1.78,1.6-2.85
			c0.76-0.64,1.86-1.23,2.79-1.23C586.27,148.04,587.22,148.64,587.22,149.43z"/>
	</g>
</g>
</svg>
